# xmcd
#
# Track frame offsets:
#	150
#	12238
#	22012
#	35396
#	49351
#	63918
#	77174
#	89174
#	101800
#	113539
#
# Disc length: 1673 seconds
#
# Revision: 0
# Processed by: cddbd v1.5.2PL0 Copyright (c) Steve Scherf et al.
# Submitted via: dBpowerAMP V4.0
#
DISCID=7f06870a
DTITLE=Johnny Paycheck  - Hero Of The Workingman
DYEAR=2006
DGENRE=Country
TTITLE0=Take This Job And Shove It
TTITLE1=Mr. Lovemaker
TTITLE2=She's All I Got
TTITLE3=Someone To Give My Love To
TTITLE4=I'm The Only Hell (Mama Ever Raised)
TTITLE5=Slide Off Of Your Satin Sheets
TTITLE6=Me And The I.R.S.
TTITLE7=Love Is A Good Thing
TTITLE8=Song And Dance Man
TTITLE9=Something About You I Love
EXTD=
EXTT0=
EXTT1=
EXTT2=
EXTT3=
EXTT4=
EXTT5=
EXTT6=
EXTT7=
EXTT8=
EXTT9=
PLAYORDER=
